<svg width="36" height="32" viewBox="0 0 36 32" fill="none" xmlns="http://www.w3.org/2000/svg">
<path d="M18.9145 20.0315C18.4126 19.7179 17.9602 19.3659 17.5942 18.9159C17.0337 18.2268 16.303 17.7891 15.4907 17.4692C14.5877 17.1136 13.6503 17.0378 12.6901 17.1113C12.0536 17.16 11.4489 17.3271 10.8643 17.5656C10.3523 17.7744 9.88819 18.074 9.49699 18.4658C9.25556 18.7076 9.07252 19.0082 8.82855 19.247C8.12161 19.9387 7.2773 20.3797 6.31485 20.6253C5.79066 20.759 5.26653 20.8196 4.73999 20.7632C4.30105 20.7163 3.85947 20.6164 3.44131 20.4745C3.02392 20.3327 2.6194 20.1354 2.23579 19.916C1.6523 19.5824 1.19138 19.1088 0.810963 18.5516C0.440669 18.0093 0.199213 17.4229 0.0771133 16.777C-0.0736331 15.9795 -5.31673e-05 15.2083 0.268852 14.4487C0.573359 13.5885 1.06941 12.8603 1.80037 12.3129C2.11906 12.0743 2.47694 11.8848 2.8288 11.6948C3.06872 11.5653 3.32067 11.4414 3.58242 11.3733C3.89166 11.2928 4.21601 11.252 4.53598 11.2351C5.17574 11.2012 5.81751 11.1905 6.44633 11.3528C7.16011 11.537 7.80566 11.8502 8.39383 12.304C8.79714 12.6151 9.10708 12.998 9.42885 13.3819C9.78314 13.8046 10.2598 14.075 10.7548 14.3088C11.8556 14.8286 13.0126 14.9376 14.2068 14.7884C15.1856 14.666 16.0706 14.3082 16.8423 13.6996C17.1846 13.4295 17.4857 13.1054 17.7949 12.7953C18.387 12.2014 19.0667 11.7565 19.8664 11.4871C20.9307 11.1286 22.012 11.1161 23.079 11.3925C24.2168 11.6873 25.1513 12.3357 25.8492 13.2929C26.5619 14.2703 26.7725 15.3735 26.6497 16.5627C26.5944 17.0993 26.4547 17.6069 26.2003 18.0751C25.8363 18.7454 25.3437 19.3053 24.7216 19.7608C24.0154 20.2778 23.2162 20.5565 22.3771 20.72C21.8121 20.83 21.2303 20.8385 20.6659 20.6697C20.2281 20.5387 19.7925 20.3996 19.3602 20.2517C19.2091 20.2 19.0707 20.1112 18.9145 20.0315Z" fill="url(#paint0_linear_102_71)"/>
<path d="M27.7145 31.2315C27.2126 30.9179 26.7602 30.5659 26.3942 30.1159C25.8337 29.4268 25.103 28.9891 24.2907 28.6692C23.3877 28.3136 22.4503 28.2378 21.4901 28.3113C20.8536 28.36 20.2489 28.5271 19.6643 28.7656C19.1523 28.9744 18.6882 29.274 18.297 29.6658C18.0556 29.9076 17.8725 30.2082 17.6286 30.447C16.9216 31.1387 16.0773 31.5797 15.1148 31.8253C14.5907 31.959 14.0665 32.0196 13.54 31.9632C13.101 31.9163 12.6595 31.8164 12.2413 31.6745C11.8239 31.5327 11.4194 31.3354 11.0358 31.116C10.4523 30.7824 9.99138 30.3088 9.61096 29.7516C9.24067 29.2093 8.99921 28.6229 8.87711 27.977C8.72637 27.1795 8.79995 26.4083 9.06885 25.6487C9.37336 24.7885 9.86941 24.0603 10.6004 23.5129C10.9191 23.2743 11.2769 23.0848 11.6288 22.8948C11.8687 22.7653 12.1207 22.6414 12.3824 22.5733C12.6917 22.4928 13.016 22.452 13.336 22.4351C13.9757 22.4012 14.6175 22.3905 15.2463 22.5528C15.9601 22.737 16.6057 23.0502 17.1938 23.504C17.5971 23.8151 17.9071 24.198 18.2289 24.5819C18.5831 25.0046 19.0598 25.275 19.5548 25.5088C20.6556 26.0286 21.8126 26.1376 23.0068 25.9884C23.9856 25.866 24.8706 25.5082 25.6423 24.8996C25.9846 24.6295 26.2857 24.3054 26.5949 23.9953C27.187 23.4014 27.8667 22.9565 28.6664 22.6871C29.7307 22.3286 30.812 22.3161 31.879 22.5925C33.0168 22.8873 33.9513 23.5357 34.6492 24.4929C35.3619 25.4703 35.5725 26.5735 35.4497 27.7627C35.3944 28.2993 35.2547 28.8069 35.0003 29.2751C34.6363 29.9454 34.1437 30.5053 33.5216 30.9608C32.8154 31.4778 32.0162 31.7565 31.1771 31.92C30.6121 32.03 30.0303 32.0385 29.4659 31.8697C29.0281 31.7387 28.5925 31.5996 28.1602 31.4517C28.0091 31.4 27.8707 31.3112 27.7145 31.2315Z" fill="url(#paint1_linear_102_71)"/>
<path d="M27.1972 8.83154C26.6953 8.51786 26.2429 8.16589 25.8769 7.7159C25.3164 7.0268 24.5857 6.58914 23.7734 6.26922C22.8704 5.91358 21.933 5.83777 20.9728 5.91128C20.3362 5.96002 19.7316 6.12708 19.1469 6.36557C18.635 6.5744 18.1709 6.87396 17.7797 7.2658C17.5382 7.50762 17.3552 7.80822 17.1112 8.04696C16.4043 8.73872 15.56 9.17966 14.5975 9.42528C14.0733 9.55905 13.5492 9.61955 13.0227 9.56324C12.5837 9.51631 12.1421 9.41643 11.724 9.27446C11.3066 9.13273 10.9021 8.93542 10.5185 8.71605C9.93496 8.38238 9.47404 7.90883 9.09363 7.35163C8.72333 6.80927 8.48188 6.22289 8.35978 5.57698C8.20903 4.77951 8.28261 4.00829 8.55152 3.24867C8.85602 2.38847 9.35207 1.66028 10.083 1.11294C10.4017 0.874309 10.7596 0.684825 11.1115 0.494839C11.3514 0.365297 11.6033 0.241402 11.8651 0.173277C12.1743 0.092796 12.4987 0.0520362 12.8187 0.0350763C13.4584 0.0011564 14.1002 -0.00952295 14.729 0.152763C15.4428 0.33698 16.0883 0.650204 16.6765 1.10395C17.0798 1.41509 17.3897 1.79795 17.7115 2.1819C18.0658 2.60464 18.5425 2.87503 19.0375 3.10879C20.1383 3.6286 21.2953 3.73761 22.4895 3.58835C23.4682 3.46603 24.3532 3.10817 25.1249 2.49958C25.4673 2.22954 25.7684 1.90544 26.0775 1.59529C26.6697 1.00135 27.3494 0.556469 28.1491 0.287101C29.2134 -0.0713855 30.2946 -0.0839419 31.3616 0.192484C32.4995 0.487264 33.434 1.13574 34.1318 2.09287C34.8445 3.07032 35.0552 4.17351 34.9324 5.36273C34.877 5.89926 34.7373 6.40688 34.483 6.87514C34.119 7.54539 33.6263 8.10532 33.0042 8.5608C32.2981 9.07781 31.4989 9.3565 30.6598 9.51997C30.0948 9.63003 29.513 9.63851 28.9486 9.46967C28.5108 9.33871 28.0752 9.19959 27.6429 9.05168C27.4918 8.99999 27.3534 8.91123 27.1972 8.83154Z" fill="url(#paint2_linear_102_71)"/>
<defs>
<linearGradient id="paint0_linear_102_71" x1="20" y1="12.4" x2="28.4" y2="26" gradientUnits="userSpaceOnUse">
<stop stop-color="#81DD68"/>
<stop offset="1" stop-color="#214D9E"/>
</linearGradient>
<linearGradient id="paint1_linear_102_71" x1="20" y1="12.4" x2="28.4" y2="26" gradientUnits="userSpaceOnUse">
<stop stop-color="#81DD68"/>
<stop offset="1" stop-color="#214D9E"/>
</linearGradient>
<linearGradient id="paint2_linear_102_71" x1="20" y1="12.4" x2="28.4" y2="26" gradientUnits="userSpaceOnUse">
<stop stop-color="#81DD68"/>
<stop offset="1" stop-color="#214D9E"/>
</linearGradient>
</defs>
</svg>
