<svg width="209" height="32" viewBox="0 0 209 32" fill="none" xmlns="http://www.w3.org/2000/svg">
<path d="M18.9145 20.0315C18.4126 19.7179 17.9602 19.3659 17.5942 18.9159C17.0337 18.2268 16.303 17.7891 15.4907 17.4692C14.5877 17.1136 13.6503 17.0378 12.6901 17.1113C12.0536 17.16 11.4489 17.3271 10.8643 17.5656C10.3523 17.7744 9.88819 18.074 9.49699 18.4658C9.25556 18.7076 9.07252 19.0082 8.82855 19.247C8.12161 19.9387 7.2773 20.3797 6.31485 20.6253C5.79066 20.759 5.26653 20.8196 4.73999 20.7632C4.30105 20.7163 3.85947 20.6164 3.44131 20.4745C3.02392 20.3327 2.6194 20.1354 2.23579 19.916C1.6523 19.5824 1.19138 19.1088 0.810963 18.5516C0.440669 18.0093 0.199213 17.4229 0.0771133 16.777C-0.0736331 15.9795 -5.31673e-05 15.2083 0.268852 14.4487C0.573359 13.5885 1.06941 12.8603 1.80037 12.3129C2.11906 12.0743 2.47694 11.8848 2.8288 11.6948C3.06872 11.5653 3.32067 11.4414 3.58242 11.3733C3.89166 11.2928 4.21601 11.252 4.53598 11.2351C5.17574 11.2012 5.81751 11.1905 6.44633 11.3528C7.16011 11.537 7.80566 11.8502 8.39383 12.304C8.79714 12.6151 9.10708 12.998 9.42885 13.3819C9.78314 13.8046 10.2598 14.075 10.7548 14.3088C11.8556 14.8286 13.0126 14.9376 14.2068 14.7884C15.1856 14.666 16.0706 14.3082 16.8423 13.6996C17.1846 13.4295 17.4857 13.1054 17.7949 12.7953C18.387 12.2014 19.0667 11.7565 19.8664 11.4871C20.9307 11.1286 22.012 11.1161 23.079 11.3925C24.2168 11.6873 25.1513 12.3357 25.8492 13.2929C26.5619 14.2703 26.7725 15.3735 26.6497 16.5627C26.5944 17.0993 26.4547 17.6069 26.2003 18.0751C25.8363 18.7454 25.3437 19.3053 24.7216 19.7608C24.0154 20.2778 23.2162 20.5565 22.3771 20.72C21.8121 20.83 21.2303 20.8385 20.6659 20.6697C20.2281 20.5387 19.7925 20.3996 19.3602 20.2517C19.2091 20.2 19.0707 20.1112 18.9145 20.0315Z" fill="url(#paint0_linear_12_149)"/>
<path d="M27.7145 31.2315C27.2126 30.9179 26.7602 30.5659 26.3942 30.1159C25.8337 29.4268 25.103 28.9891 24.2907 28.6692C23.3877 28.3136 22.4503 28.2378 21.4901 28.3113C20.8536 28.36 20.2489 28.5271 19.6643 28.7656C19.1523 28.9744 18.6882 29.274 18.297 29.6658C18.0556 29.9076 17.8725 30.2082 17.6286 30.447C16.9216 31.1387 16.0773 31.5797 15.1148 31.8253C14.5907 31.959 14.0665 32.0196 13.54 31.9632C13.101 31.9163 12.6595 31.8164 12.2413 31.6745C11.8239 31.5327 11.4194 31.3354 11.0358 31.116C10.4523 30.7824 9.99138 30.3088 9.61096 29.7516C9.24067 29.2093 8.99921 28.6229 8.87711 27.977C8.72637 27.1795 8.79995 26.4083 9.06885 25.6487C9.37336 24.7885 9.86941 24.0603 10.6004 23.5129C10.9191 23.2743 11.2769 23.0848 11.6288 22.8948C11.8687 22.7653 12.1207 22.6414 12.3824 22.5733C12.6917 22.4928 13.016 22.452 13.336 22.4351C13.9757 22.4012 14.6175 22.3905 15.2463 22.5528C15.9601 22.737 16.6057 23.0502 17.1938 23.504C17.5971 23.8151 17.9071 24.198 18.2289 24.5819C18.5831 25.0046 19.0598 25.275 19.5548 25.5088C20.6556 26.0286 21.8126 26.1376 23.0068 25.9884C23.9856 25.866 24.8706 25.5082 25.6423 24.8996C25.9846 24.6295 26.2857 24.3054 26.5949 23.9953C27.187 23.4014 27.8667 22.9565 28.6664 22.6871C29.7307 22.3286 30.812 22.3161 31.879 22.5925C33.0168 22.8873 33.9513 23.5357 34.6492 24.4929C35.3619 25.4703 35.5725 26.5735 35.4497 27.7627C35.3944 28.2993 35.2547 28.8069 35.0003 29.2751C34.6363 29.9454 34.1437 30.5053 33.5216 30.9608C32.8154 31.4778 32.0162 31.7565 31.1771 31.92C30.6121 32.03 30.0303 32.0385 29.4659 31.8697C29.0281 31.7387 28.5925 31.5996 28.1602 31.4517C28.0091 31.4 27.8707 31.3112 27.7145 31.2315Z" fill="url(#paint1_linear_12_149)"/>
<path d="M27.1972 8.83154C26.6953 8.51786 26.2429 8.16589 25.8769 7.7159C25.3164 7.0268 24.5857 6.58914 23.7734 6.26922C22.8704 5.91358 21.933 5.83777 20.9728 5.91128C20.3362 5.96002 19.7316 6.12708 19.1469 6.36557C18.635 6.5744 18.1709 6.87396 17.7797 7.2658C17.5382 7.50762 17.3552 7.80822 17.1112 8.04696C16.4043 8.73872 15.56 9.17966 14.5975 9.42528C14.0733 9.55905 13.5492 9.61955 13.0227 9.56324C12.5837 9.51631 12.1421 9.41643 11.724 9.27446C11.3066 9.13273 10.9021 8.93542 10.5185 8.71605C9.93496 8.38238 9.47404 7.90883 9.09363 7.35163C8.72333 6.80927 8.48188 6.22289 8.35978 5.57698C8.20903 4.77951 8.28261 4.00829 8.55152 3.24867C8.85602 2.38847 9.35207 1.66028 10.083 1.11294C10.4017 0.874309 10.7596 0.684825 11.1115 0.494839C11.3514 0.365297 11.6033 0.241402 11.8651 0.173277C12.1743 0.092796 12.4987 0.0520362 12.8187 0.0350763C13.4584 0.0011564 14.1002 -0.00952295 14.729 0.152763C15.4428 0.33698 16.0883 0.650204 16.6765 1.10395C17.0798 1.41509 17.3897 1.79795 17.7115 2.1819C18.0658 2.60464 18.5425 2.87503 19.0375 3.10879C20.1383 3.6286 21.2953 3.73761 22.4895 3.58835C23.4682 3.46603 24.3532 3.10817 25.1249 2.49958C25.4673 2.22954 25.7684 1.90544 26.0775 1.59529C26.6697 1.00135 27.3494 0.556469 28.1491 0.287101C29.2134 -0.0713855 30.2946 -0.083942 31.3616 0.192484C32.4995 0.487264 33.434 1.13574 34.1318 2.09287C34.8445 3.07032 35.0552 4.17351 34.9324 5.36273C34.877 5.89926 34.7373 6.40688 34.483 6.87514C34.119 7.54539 33.6263 8.10532 33.0042 8.5608C32.2981 9.07781 31.4989 9.3565 30.6598 9.51997C30.0948 9.63003 29.513 9.63851 28.9486 9.46967C28.5108 9.33871 28.0752 9.19959 27.6429 9.05168C27.4918 8.99999 27.3534 8.91123 27.1972 8.83154Z" fill="url(#paint2_linear_12_149)"/>
<path d="M47.6727 26V6.2H63.0927V10.19H52.8327V14.21H60.9927V17.96H52.8327V22.01H63.4827V26H47.6727ZM66.2384 26V11H70.7384L70.9484 14.24C71.3284 13.12 71.8884 12.25 72.6284 11.63C73.3884 11.01 74.3484 10.7 75.5084 10.7C75.8884 10.7 76.2084 10.73 76.4684 10.79C76.7484 10.85 76.9684 10.93 77.1284 11.03L76.6184 15.23C76.4184 15.15 76.1584 15.09 75.8384 15.05C75.5384 14.99 75.1684 14.96 74.7284 14.96C74.1284 14.96 73.5684 15.09 73.0484 15.35C72.5284 15.61 72.1084 16 71.7884 16.52C71.4884 17.02 71.3384 17.66 71.3384 18.44V26H66.2384ZM79.1291 26V11H83.6291L83.8391 14.24C84.2191 13.12 84.7791 12.25 85.5191 11.63C86.2791 11.01 87.2391 10.7 88.3991 10.7C88.7791 10.7 89.0991 10.73 89.3591 10.79C89.6391 10.85 89.8591 10.93 90.0191 11.03L89.5091 15.23C89.3091 15.15 89.0491 15.09 88.7291 15.05C88.4291 14.99 88.0591 14.96 87.6191 14.96C87.0191 14.96 86.4591 15.09 85.9391 15.35C85.4191 15.61 84.9991 16 84.6791 16.52C84.3791 17.02 84.2291 17.66 84.2291 18.44V26H79.1291ZM100.243 16.49C100.243 15.79 100.043 15.24 99.6432 14.84C99.2632 14.42 98.7432 14.21 98.0832 14.21C97.4232 14.21 96.8532 14.38 96.3732 14.72C95.9132 15.04 95.5932 15.62 95.4132 16.46L91.0932 15.44C91.3732 14 92.1132 12.85 93.3132 11.99C94.5132 11.13 96.2032 10.7 98.3832 10.7C99.8432 10.7 101.083 10.92 102.103 11.36C103.143 11.78 103.933 12.42 104.473 13.28C105.033 14.12 105.313 15.16 105.313 16.4V21.89C105.313 22.67 105.663 23.06 106.363 23.06C106.723 23.06 107.013 23.02 107.233 22.94L106.933 25.85C106.333 26.13 105.603 26.27 104.743 26.27C103.963 26.27 103.273 26.15 102.673 25.91C102.073 25.65 101.603 25.27 101.263 24.77C100.923 24.25 100.753 23.6 100.753 22.82V22.64L101.323 22.43C101.323 23.29 101.063 24.01 100.543 24.59C100.043 25.17 99.3832 25.6 98.5632 25.88C97.7632 26.16 96.9232 26.3 96.0432 26.3C95.0232 26.3 94.1332 26.14 93.3732 25.82C92.6132 25.5 92.0232 25.04 91.6032 24.44C91.2032 23.82 91.0032 23.06 91.0032 22.16C91.0032 21.08 91.3232 20.19 91.9632 19.49C92.6232 18.77 93.6532 18.27 95.0532 17.99L100.723 16.82L100.693 19.52L97.8132 20.12C97.2132 20.24 96.7632 20.42 96.4632 20.66C96.1832 20.88 96.0432 21.22 96.0432 21.68C96.0432 22.12 96.2032 22.45 96.5232 22.67C96.8432 22.89 97.2232 23 97.6632 23C98.0032 23 98.3232 22.95 98.6232 22.85C98.9432 22.75 99.2232 22.6 99.4632 22.4C99.7032 22.18 99.8932 21.91 100.033 21.59C100.173 21.27 100.243 20.89 100.243 20.45V16.49ZM109.246 26V11H113.806L114.076 16.16L113.506 15.59C113.706 14.51 114.056 13.61 114.556 12.89C115.076 12.17 115.716 11.63 116.476 11.27C117.256 10.89 118.126 10.7 119.086 10.7C120.126 10.7 121.026 10.9 121.786 11.3C122.566 11.7 123.176 12.29 123.616 13.07C124.056 13.85 124.276 14.83 124.276 16.01V26H119.176V17.36C119.176 16.32 118.976 15.6 118.576 15.2C118.176 14.8 117.666 14.6 117.046 14.6C116.566 14.6 116.116 14.72 115.696 14.96C115.276 15.18 114.946 15.54 114.706 16.04C114.466 16.54 114.346 17.21 114.346 18.05V26H109.246ZM133.37 26.3C132.13 26.3 131.04 26 130.1 25.4C129.18 24.78 128.46 23.89 127.94 22.73C127.44 21.57 127.19 20.18 127.19 18.56C127.19 16.88 127.45 15.46 127.97 14.3C128.51 13.14 129.25 12.25 130.19 11.63C131.15 11.01 132.25 10.7 133.49 10.7C134.85 10.7 135.94 11.12 136.76 11.96C137.6 12.78 138.14 13.83 138.38 15.11L137.9 15.74V4.64H143V26H138.44L138.11 20.9L138.71 21.35C138.59 22.35 138.28 23.22 137.78 23.96C137.3 24.7 136.68 25.28 135.92 25.7C135.18 26.1 134.33 26.3 133.37 26.3ZM135.14 22.55C135.72 22.55 136.21 22.4 136.61 22.1C137.03 21.78 137.35 21.31 137.57 20.69C137.79 20.07 137.9 19.31 137.9 18.41C137.9 17.57 137.79 16.86 137.57 16.28C137.37 15.68 137.06 15.23 136.64 14.93C136.24 14.61 135.75 14.45 135.17 14.45C134.29 14.45 133.59 14.78 133.07 15.44C132.57 16.08 132.32 17.1 132.32 18.5C132.32 19.9 132.57 20.93 133.07 21.59C133.57 22.23 134.26 22.55 135.14 22.55ZM154.758 5.9C156.598 5.9 158.218 6.19 159.618 6.77C161.038 7.33 162.268 8.16 163.308 9.26L160.818 12.59C159.958 11.69 159.028 11.02 158.028 10.58C157.048 10.12 155.928 9.89 154.668 9.89C153.928 9.89 153.328 9.97 152.868 10.13C152.408 10.29 152.078 10.51 151.878 10.79C151.678 11.07 151.578 11.39 151.578 11.75C151.578 12.17 151.768 12.53 152.148 12.83C152.548 13.11 153.188 13.35 154.068 13.55L157.398 14.3C159.378 14.76 160.828 15.43 161.748 16.31C162.668 17.19 163.128 18.36 163.128 19.82C163.128 21.22 162.768 22.41 162.048 23.39C161.328 24.35 160.338 25.08 159.078 25.58C157.818 26.06 156.378 26.3 154.758 26.3C153.438 26.3 152.178 26.16 150.978 25.88C149.778 25.58 148.698 25.16 147.738 24.62C146.778 24.08 145.968 23.46 145.308 22.76L147.798 19.31C148.298 19.89 148.908 20.41 149.628 20.87C150.368 21.31 151.168 21.66 152.028 21.92C152.908 22.18 153.798 22.31 154.698 22.31C155.398 22.31 155.978 22.24 156.438 22.1C156.918 21.96 157.268 21.75 157.488 21.47C157.708 21.19 157.818 20.86 157.818 20.48C157.818 20.06 157.668 19.71 157.368 19.43C157.068 19.13 156.498 18.88 155.658 18.68L151.998 17.87C150.878 17.61 149.878 17.27 148.998 16.85C148.138 16.41 147.458 15.83 146.958 15.11C146.458 14.37 146.208 13.45 146.208 12.35C146.208 11.11 146.548 10.01 147.228 9.05C147.908 8.07 148.888 7.3 150.168 6.74C151.448 6.18 152.978 5.9 154.758 5.9ZM173.134 10.7C174.714 10.7 176.094 11.01 177.274 11.63C178.474 12.23 179.404 13.12 180.064 14.3C180.744 15.46 181.084 16.86 181.084 18.5C181.084 20.14 180.744 21.55 180.064 22.73C179.404 23.89 178.474 24.78 177.274 25.4C176.094 26 174.714 26.3 173.134 26.3C171.594 26.3 170.224 26 169.024 25.4C167.824 24.78 166.884 23.89 166.204 22.73C165.544 21.55 165.214 20.14 165.214 18.5C165.214 16.86 165.544 15.46 166.204 14.3C166.884 13.12 167.824 12.23 169.024 11.63C170.224 11.01 171.594 10.7 173.134 10.7ZM173.134 14.33C172.554 14.33 172.054 14.47 171.634 14.75C171.214 15.03 170.894 15.48 170.674 16.1C170.454 16.72 170.344 17.52 170.344 18.5C170.344 19.48 170.454 20.28 170.674 20.9C170.894 21.5 171.214 21.95 171.634 22.25C172.054 22.53 172.554 22.67 173.134 22.67C173.734 22.67 174.244 22.53 174.664 22.25C175.084 21.95 175.404 21.5 175.624 20.9C175.844 20.28 175.954 19.48 175.954 18.5C175.954 17.52 175.844 16.72 175.624 16.1C175.404 15.48 175.084 15.03 174.664 14.75C174.244 14.47 173.734 14.33 173.134 14.33ZM183.953 26V11H188.453L188.663 14.24C189.043 13.12 189.603 12.25 190.343 11.63C191.103 11.01 192.063 10.7 193.223 10.7C193.603 10.7 193.923 10.73 194.183 10.79C194.463 10.85 194.683 10.93 194.843 11.03L194.333 15.23C194.133 15.15 193.873 15.09 193.553 15.05C193.253 14.99 192.883 14.96 192.443 14.96C191.843 14.96 191.283 15.09 190.763 15.35C190.243 15.61 189.823 16 189.503 16.52C189.203 17.02 189.053 17.66 189.053 18.44V26H183.953ZM202.733 6.23V20.66C202.733 21.38 202.903 21.9 203.243 22.22C203.603 22.52 204.093 22.67 204.713 22.67C205.193 22.67 205.603 22.62 205.943 22.52C206.303 22.4 206.623 22.23 206.903 22.01L207.443 25.16C206.943 25.52 206.313 25.8 205.553 26C204.793 26.2 204.013 26.3 203.213 26.3C202.073 26.3 201.083 26.14 200.243 25.82C199.423 25.5 198.783 24.99 198.323 24.29C197.883 23.59 197.653 22.66 197.633 21.5V7.64L202.733 6.23ZM207.203 11V14.63H195.053V11H207.203Z" fill="#1F1F1F"/>
<defs>
<linearGradient id="paint0_linear_12_149" x1="20" y1="12.4" x2="28.4" y2="26" gradientUnits="userSpaceOnUse">
<stop stop-color="#81DD68"/>
<stop offset="1" stop-color="#214D9E"/>
</linearGradient>
<linearGradient id="paint1_linear_12_149" x1="20" y1="12.4" x2="28.4" y2="26" gradientUnits="userSpaceOnUse">
<stop stop-color="#81DD68"/>
<stop offset="1" stop-color="#214D9E"/>
</linearGradient>
<linearGradient id="paint2_linear_12_149" x1="20" y1="12.4" x2="28.4" y2="26" gradientUnits="userSpaceOnUse">
<stop stop-color="#81DD68"/>
<stop offset="1" stop-color="#214D9E"/>
</linearGradient>
</defs>
</svg>
